<svg width="20" height="15" viewBox="0 0 20 15" fill="none" xmlns="http://www.w3.org/2000/svg">
<path d="M0.832009 14.0649C0.281416 12.8034 -0.00186939 11.4414 9.28321e-06 10.0649C9.28321e-06 4.54194 4.47701 0.0649414 10 0.0649414C15.523 0.0649414 20 4.54194 20 10.0649C20.0019 11.4414 19.7186 12.8034 19.168 14.0649H0.832009ZM10 5.06494C10.2652 5.06494 10.5196 4.95958 10.7071 4.77205C10.8947 4.58451 11 4.33016 11 4.06494C11 3.79972 10.8947 3.54537 10.7071 3.35783C10.5196 3.1703 10.2652 3.06494 10 3.06494C9.73479 3.06494 9.48044 3.1703 9.2929 3.35783C9.10537 3.54537 9.00001 3.79972 9.00001 4.06494C9.00001 4.33016 9.10537 4.58451 9.2929 4.77205C9.48044 4.95958 9.73479 5.06494 10 5.06494ZM5.00001 9.06494C5.26523 9.06494 5.51958 8.95959 5.70712 8.77205C5.89465 8.58451 6.00001 8.33016 6.00001 8.06494C6.00001 7.79972 5.89465 7.54537 5.70712 7.35783C5.51958 7.1703 5.26523 7.06494 5.00001 7.06494C4.73479 7.06494 4.48044 7.1703 4.2929 7.35783C4.10537 7.54537 4.00001 7.79972 4.00001 8.06494C4.00001 8.33016 4.10537 8.58451 4.2929 8.77205C4.48044 8.95959 4.73479 9.06494 5.00001 9.06494ZM15 9.06494C15.2652 9.06494 15.5196 8.95959 15.7071 8.77205C15.8947 8.58451 16 8.33016 16 8.06494C16 7.79972 15.8947 7.54537 15.7071 7.35783C15.5196 7.1703 15.2652 7.06494 15 7.06494C14.7348 7.06494 14.4804 7.1703 14.2929 7.35783C14.1054 7.54537 14 7.79972 14 8.06494C14 8.33016 14.1054 8.58451 14.2929 8.77205C14.4804 8.95959 14.7348 9.06494 15 9.06494ZM10 6.06494C9.73479 6.06494 9.48044 6.1703 9.2929 6.35783C9.10537 6.54537 9.00001 6.79973 9.00001 7.06494V10.0649C9.00001 10.3302 9.10537 10.5845 9.2929 10.772C9.48044 10.9596 9.73479 11.0649 10 11.0649C10.2652 11.0649 10.5196 10.9596 10.7071 10.772C10.8947 10.5845 11 10.3302 11 10.0649V7.06494C11 6.79973 10.8947 6.54537 10.7071 6.35783C10.5196 6.1703 10.2652 6.06494 10 6.06494Z" fill="#447FC1"/>
</svg>
